<svg id="Layer_1" enable-background="new 0 0 512.786 512.786" viewBox="0 0 512.786 512.786" xmlns="http://www.w3.org/2000/svg"><g><path d="m256.393 256.015c70.583 0 128.007-57.424 128.007-128.007 0-70.584-57.424-128.008-128.007-128.008s-128.007 57.424-128.007 128.008c0 70.583 57.424 128.007 128.007 128.007zm-40.209-105.109c5.811-2.48 12.469-.609 16.737 4.05 5.643 6.158 14.201 10.041 23.316 10.689 9.553 1.192 18.828-4.43 19.743-10.687.901-8.391-11.721-12.13-16.445-14.016-12.843-4.993-21.002-8.29-26.035-10.566-5.572-2.521-10.509-6.336-14.097-11.289-5.349-7.384-7.712-16.661-6.345-26.182 2.138-14.895 12.993-27.022 28.334-31.664v-10.88c0-8.231 6.632-14.907 14.844-14.992.053 0 .104-.008.156-.008 8.284 0 15 6.716 15 15v10.36c14.995 3.762 25.157 12.134 25.814 12.687 6.325 5.35 7.182 14.87 1.833 21.196s-14.814 7.116-21.139 1.767c-3.026-2.312-11.756-7.774-21.664-7.422-2.003.071-4.06.373-6.138.999-8.322 2.495-9.617 10.403-4.025 13.165 7.176 3.117 19.57 8.164 27.329 10.987 27.909 10.293 34.887 30.58 32.11 46.133-2.996 16.781-16.573 29.807-34.121 34.047v10.071c0 8.284-6.716 15-15 15-.053 0-.104-.007-.156-.008-8.211-.084-14.844-6.761-14.844-14.992v-10.876c-11.937-3.161-22.681-9.521-30.807-18.487-6.715-7.415-4.639-19.711 5.6-24.082z"/><path d="m497.29 482.786h-466.794v-466.794c0-8.284-6.716-15-15-15s-15 6.716-15 15v481.794c0 8.284 6.716 15 15 15h481.794c8.284 0 15-6.716 15-15s-6.716-15-15-15z"/><path d="m377.097 453.034h89.935c8.284 0 15-6.716 15-15v-185.979c0-8.284-6.716-15-15-15h-89.935c-8.284 0-15 6.716-15 15v185.979c0 8.284 6.716 15 15 15z"/><path d="m165.97 343.056h-89.936c-8.284 0-15 6.716-15 15v79.978c0 8.284 6.716 15 15 15h89.936c8.284 0 15-6.716 15-15v-79.978c0-8.285-6.716-15-15-15z"/><path d="m211.566 321.056v116.978c0 8.284 6.716 15 15 15h89.936c8.284 0 15-6.716 15-15v-116.978c0-8.284-6.716-15-15-15h-89.936c-8.285 0-15 6.715-15 15z"/></g><g/><g/><g/><g/><g/><g/><g/><g/><g/><g/><g/><g/><g/><g/><g/></svg>